<svg width="209" height="53" viewBox="0 0 209 53" fill="none" xmlns="http://www.w3.org/2000/svg">
<g clip-path="url(#clip0_108_14)">
<path fill-rule="evenodd" clip-rule="evenodd" d="M23.4351 0L34.8412 6.4898L46.5189 13.25V26.5V39.75L34.8412 46.2398L23.4351 53L11.7574 46.2398L0.351318 39.75V26.5V13.25L11.7574 6.4898L23.4351 0Z" fill="#2C318D"/>
<path fill-rule="evenodd" clip-rule="evenodd" d="M18.5466 25.148C18.8182 24.8776 18.8182 24.6071 19.0898 24.0663L19.6329 23.7959C19.9045 23.5255 19.9045 23.5255 19.9045 23.5255C20.7192 23.2551 21.5339 23.2551 22.3486 23.5255C22.8918 23.7959 22.8918 23.7959 23.1634 24.0663C23.4349 24.3367 23.7065 24.6071 23.9781 25.148C24.2497 25.6888 24.2497 26.2296 24.2497 27.0408V31.6378V35.9643H27.237L27.5086 27.0408C27.5086 26.2296 27.5086 25.148 28.0517 24.6071C28.3233 24.0663 29.138 23.5255 29.9527 23.5255C32.1253 22.9847 33.2116 24.6071 33.4832 26.2296V35.9643H36.4705V30.5561C36.4705 28.9337 36.7421 26.7704 36.4705 25.148C35.6558 21.9031 32.6685 20.0102 29.4096 20.2806C28.5948 20.551 28.0517 20.8214 27.237 21.0918C26.9654 21.3623 26.9654 21.6327 26.6938 21.6327C26.1507 22.1735 26.1507 22.1735 25.6075 22.4439C25.0644 21.0918 22.8918 20.2806 20.9908 20.2806C19.3613 20.551 18.275 21.0918 17.1887 21.9031C16.9172 22.1735 16.6456 22.4439 16.374 22.7143L18.5466 25.148Z" fill="white"/>
<path fill-rule="evenodd" clip-rule="evenodd" d="M21.8056 30.8265C21.534 31.0969 21.2625 31.3674 21.2625 31.6378C20.9909 31.9082 20.7193 31.9082 20.4477 32.1786C19.0899 32.9898 16.9173 33.2602 15.5594 32.1786C14.4731 31.6378 14.7447 31.3674 14.2015 31.0969C13.6584 30.0153 13.3868 29.7449 13.3868 28.1225C13.1152 25.6888 13.1152 20.8214 13.1152 17.8469C13.3868 16.7653 13.1152 17.0357 13.1152 17.0357H10.1279V19.4694V28.9337C10.3995 32.449 13.1152 35.1531 16.3741 35.6939C17.732 35.9643 18.5467 36.2347 19.9046 35.6939C20.7193 35.4235 21.2625 35.1531 21.8056 34.8827V30.8265Z" fill="white"/>
<path fill-rule="evenodd" clip-rule="evenodd" d="M23.4351 0.811218L45.7041 13.5204L28.595 15.6837L23.4351 0.811218Z" fill="#CCCCFF"/>
<path d="M67.9732 26.7704C67.9732 29.2041 68.5164 31.3673 69.8742 32.7194C70.9605 34.3418 72.59 34.8826 74.7626 34.8826C76.6636 34.8826 78.293 34.3418 79.3793 32.9898C80.7372 31.6378 81.2803 29.4745 81.2803 27.0408C81.2803 24.6071 80.7372 22.4439 79.3793 21.0918C78.293 19.7398 76.6636 18.9286 74.491 18.9286C72.59 18.9286 70.9605 19.7398 69.6027 21.0918C68.5164 22.4439 67.9732 24.3367 67.9732 26.7704ZM62.5417 50.0255V14.8724H68.2448V18.9286C68.7879 17.3061 69.8742 16.2245 71.2321 15.4133C72.59 14.602 74.2194 14.0612 76.1204 14.0612C79.3793 14.0612 82.0951 15.4133 83.9961 17.5765C85.8971 20.0102 86.9834 22.9847 86.9834 26.7704C86.9834 30.8265 85.8971 34.0714 83.9961 36.2347C82.0951 38.6684 79.3793 39.75 76.1204 39.75C74.2194 39.75 72.8616 39.4796 71.5037 38.9388C70.1458 38.1275 69.0595 37.0459 68.2448 35.6939V50.0255H62.5417Z" fill="#394346"/>
<path d="M110.61 38.9388H105.179V35.6939C104.364 37.0459 103.006 38.1275 101.92 38.9388C100.562 39.4796 98.9326 39.75 97.3031 39.75C94.0443 39.75 91.3285 38.6684 89.4275 36.2347C87.2549 34.0714 86.4402 30.8265 86.4402 26.7704C86.4402 22.9847 87.5265 20.0102 89.4275 17.5765C91.3285 15.4133 94.0443 14.0612 97.3031 14.0612C99.2042 14.0612 100.834 14.602 102.191 15.4133C103.549 16.2245 104.636 17.3061 105.179 18.9286V14.8724H110.61V38.9388ZM105.45 26.7704C105.45 24.3367 104.907 22.4439 103.549 21.0918C102.463 19.7398 100.834 18.9286 98.9326 18.9286C96.76 18.9286 95.1305 19.7398 94.0443 21.0918C92.6864 22.4439 92.1432 24.6071 92.1432 27.0408C92.1432 29.4745 92.6864 31.6377 93.7727 32.9898C95.1305 34.3418 96.76 34.8826 98.661 34.8826C100.834 34.8826 102.191 34.3418 103.549 32.7194C104.907 31.0969 105.45 29.2041 105.45 26.7704Z" fill="#394346"/>
<path d="M117.943 50.0255H112.24L118.757 36.7755L110.067 14.8724H116.042L120.387 27.3112C120.659 28.1224 120.93 28.9337 121.202 29.7449C121.202 30.2857 121.473 31.0969 121.473 31.9082C121.745 31.0969 122.288 29.7449 123.103 28.1224L123.374 27.5816L129.077 14.8724H135.052L117.943 50.0255Z" fill="#394346"/>
<path d="M150.803 26.7704C150.803 24.3367 150.26 22.4439 148.902 21.0918C147.816 19.7398 146.186 18.9286 144.285 18.9286C142.113 18.9286 140.483 19.7398 139.397 21.0918C138.039 22.4439 137.496 24.6071 137.496 27.0408C137.496 29.4745 138.039 31.6378 139.125 32.9898C140.212 34.3418 141.841 34.8826 144.014 34.8826C145.915 34.8826 147.544 34.3418 148.902 32.7194C149.988 31.0969 150.803 29.2041 150.803 26.7704ZM155.963 37.3163C155.963 41.9133 155.148 45.4286 153.247 47.3214C151.346 49.2143 148.359 50.0255 143.742 50.0255C140.483 50.0255 137.768 49.4847 135.867 47.8622C133.966 46.5102 132.879 44.6173 132.879 42.4541H138.854C138.854 43.5357 139.397 44.3469 140.212 44.8878C141.026 45.4286 142.384 45.699 144.014 45.699C146.186 45.699 147.816 45.1582 148.902 44.0765C149.988 42.9949 150.532 41.3724 150.532 38.9388V35.6939C149.717 37.0459 148.359 38.1275 147.273 38.9388C145.915 39.4796 144.285 39.75 142.656 39.75C139.397 39.75 136.681 38.6684 134.78 36.2347C132.608 34.0714 131.793 30.8265 131.793 26.7704C131.793 22.9847 132.608 20.0102 134.78 17.5765C136.681 15.4133 139.397 14.0612 142.384 14.0612C144.557 14.0612 146.186 14.602 147.544 15.4133C148.902 16.2245 149.988 17.3061 150.532 18.9286V14.8724H155.963V37.3163Z" fill="#394346"/>
<path d="M158.679 4.59695C158.679 3.78572 158.951 2.9745 159.494 2.16328C160.308 1.62246 161.123 1.35205 161.938 1.35205C163.024 1.35205 163.839 1.62246 164.382 2.16328C165.197 2.9745 165.468 3.78572 165.468 4.59695C165.468 5.67858 165.197 6.48981 164.382 7.03062C163.839 7.84185 163.024 8.11226 161.938 8.11226C161.123 8.11226 160.308 7.84185 159.494 7.03062C158.951 6.48981 158.679 5.67858 158.679 4.59695ZM159.222 38.9388V14.8725H164.654V38.9388H159.222Z" fill="#394346"/>
<path d="M190.996 27.5816H171.986C171.986 30.0153 172.801 31.6377 173.887 32.9898C175.245 34.0714 176.603 34.8826 178.775 34.8826C180.405 34.8826 182.034 34.3418 183.121 33.801C184.207 32.9898 185.293 31.6377 186.108 30.0153L190.725 32.7194C189.367 35.1531 187.737 36.7755 185.836 38.1275C183.935 39.2092 181.491 39.75 178.775 39.75C174.973 39.75 171.986 38.6684 169.542 36.2347C167.369 34.0714 166.283 30.8265 166.283 27.0408C166.283 23.2551 167.369 20.2806 169.813 17.8469C172.258 15.4133 175.245 14.0612 178.775 14.0612C182.577 14.0612 185.565 15.1429 187.737 17.5765C189.91 19.7398 190.996 22.7143 190.996 26.7704V27.5816ZM185.293 24.0663C185.293 22.4439 184.478 21.0918 183.392 20.0102C182.306 19.199 180.948 18.6582 179.047 18.6582C177.146 18.6582 175.788 19.199 174.702 20.0102C173.615 21.0918 172.801 22.1735 172.258 24.0663H185.293Z" fill="#394346"/>
<path d="M189.367 34.6122L193.983 31.9082C194.255 33.2602 195.07 34.0714 195.884 34.8826C196.699 35.4235 198.057 35.6939 199.415 35.6939C200.501 35.6939 201.588 35.4235 202.402 34.8826C202.945 34.3418 203.217 33.5306 203.217 32.449C203.217 31.3673 202.131 30.0153 199.687 29.2041C198.872 28.9337 198.057 28.6633 197.785 28.3929C195.07 27.3112 193.169 26.2296 192.354 25.148C191.268 24.0663 190.725 22.7143 190.725 21.3622C190.725 19.199 191.539 17.3061 193.169 15.9541C195.07 14.8724 197.242 14.0612 199.958 14.0612C201.859 14.0612 203.489 14.3316 204.575 15.1429C205.933 15.6837 207.019 16.7653 207.562 18.1173L203.76 20.8214C203.489 20.0102 202.945 19.4694 202.131 18.9286C201.588 18.3877 200.773 18.1173 199.687 18.1173C198.6 18.1173 197.785 18.3877 197.242 18.9286C196.428 19.4694 196.156 20.0102 196.156 20.8214C196.156 22.1735 197.785 23.2551 200.501 24.3367C201.316 24.6071 202.131 24.8775 202.674 25.148C204.846 25.9592 206.204 27.0408 207.291 28.1224C208.105 29.2041 208.648 30.5561 208.648 32.1786C208.648 34.6122 207.834 36.5051 206.204 37.8571C204.303 39.2092 201.859 39.75 198.872 39.75C196.699 39.75 194.527 39.4796 193.169 38.398C191.539 37.5867 190.453 36.2347 189.367 34.6122Z" fill="#394346"/>
</g>
<defs>
<clipPath id="clip0_108_14">
<rect width="209" height="53" fill="white"/>
</clipPath>
</defs>
</svg>
